<?xml version="1.0" encoding="UTF-8"?>
<svg version="1.1" xmlns="http://www.w3.org/2000/svg" width="64" height="64">
<path d="M0 0 C3.5 1.8125 3.5 1.8125 6 4 C6.8971875 4.7734375 6.8971875 4.7734375 7.8125 5.5625 C10.79982982 9.17874136 10.33003231 13.83588996 10.27734375 18.2734375 C9.7507224 23.4506446 7.10837322 25.97272726 3.4375 29.375 C-1.43356475 31.67768515 -5.70186881 31.77379561 -11 31 C-15.86108919 28.70203056 -18.70203056 25.86108919 -21 21 C-21.64176097 16.09665772 -21.67799943 11.67715648 -19.8125 7.0625 C-13.84139222 0.26779115 -8.7863642 -0.9183488 0 0 Z M-16 11 C-16.79499841 19.31762636 -16.79499841 19.31762636 -14.125 23 C-10.59185943 26.32530877 -7.95338737 26.33074386 -3.26171875 26.29296875 C0.0542278 25.86344199 1.74987627 24.39075646 4 22 C5.67082039 19.03103721 5.67082039 19.03103721 5 11 C-1.93 11 -8.86 11 -16 11 Z " fill="#000000" transform="translate(39,5)"/>
<path d="M0 0 C15.84 0 31.68 0 48 0 C48 2.31 48 4.62 48 7 C46.68 7 45.36 7 44 7 C44 6.01 44 5.02 44 4 C32.12 4 20.24 4 8 4 C8 9.28 8 14.56 8 20 C5.36 20 2.72 20 0 20 C0 13.4 0 6.8 0 0 Z " fill="#000000" transform="translate(9,40)"/>
<path d="M0 0 C1.32 0 2.64 0 4 0 C4 4.29 4 8.58 4 13 C11.26 13 18.52 13 26 13 C26 8.71 26 4.42 26 0 C27.32 0 28.64 0 30 0 C30 5.61 30 11.22 30 17 C20.1 17 10.2 17 0 17 C0 11.39 0 5.78 0 0 Z " fill="#000000" transform="translate(31,47)"/>
<path d="M0 0 C1.98 0 3.96 0 6 0 C6 1.98 6 3.96 6 6 C4.02 6 2.04 6 0 6 C0 4.02 0 2.04 0 0 Z " fill="#000000" transform="translate(43,51)"/>
<path d="M0 0 C0.99 0 1.98 0 3 0 C3 1.32 3 2.64 3 4 C2.01 4 1.02 4 0 4 C0 2.68 0 1.36 0 0 Z " fill="#000000" transform="translate(51,52)"/>
<path d="M0 0 C0.99 0 1.98 0 3 0 C3 1.32 3 2.64 3 4 C2.01 4 1.02 4 0 4 C0 2.68 0 1.36 0 0 Z " fill="#000000" transform="translate(38,52)"/>
</svg>
