<?xml version="1.0" encoding="UTF-8"?>
<svg version="1.1" xmlns="http://www.w3.org/2000/svg" width="512" height="512">
<path d="M0 0 C3.31249959 1.44638078 5.49959763 3.2484191 8.04962158 5.7956543 C8.84605072 6.58644379 9.64247986 7.37723328 10.46304321 8.19198608 C11.32763153 9.06062286 12.19221985 9.92925964 13.08300781 10.82421875 C14.45913742 12.1950914 14.45913742 12.1950914 15.86306763 13.59365845 C18.37571053 16.09719044 20.88199424 18.6069993 23.38691044 21.11825943 C26.0077755 23.74418814 28.63351679 26.36523359 31.25848389 28.98706055 C35.66355808 33.38849745 40.06440091 37.79413216 44.46289062 42.20214844 C49.55336018 47.30351559 54.65101308 52.39761944 59.75243115 57.48803616 C64.1298301 61.85637157 68.50333503 66.22857688 72.87358356 70.6040659 C75.48493675 73.21854221 78.09763454 75.8316363 80.7138443 78.44125366 C83.62649135 81.34707303 86.53092929 84.26096262 89.43457031 87.17578125 C90.74359818 88.47873642 90.74359818 88.47873642 92.07907104 89.80801392 C92.86422089 90.59880341 93.64937073 91.3895929 94.45831299 92.2043457 C95.14630604 92.8930928 95.83429909 93.5818399 96.54314041 94.29145813 C98 96 98 96 98 98 C78.2 98 58.4 98 38 98 C37.67 103.61 37.34 109.22 37 115 C36.54947124 119.05475888 36.06454051 123.03885133 35.4375 127.0625 C35.18577026 128.67838013 35.18577026 128.67838013 34.92895508 130.3269043 C26.91303416 178.72135187 8.88909557 227.48217086 -22 266 C-22.44279297 266.55848633 -22.88558594 267.11697266 -23.34179688 267.69238281 C-50.32613804 301.51410966 -86.26487964 326.58786937 -129.96875 331.68359375 C-146.86345893 333.16610446 -163.73826916 331.9408165 -180 327 C-180 326.34 -180 325.68 -180 325 C-179.030625 324.6596875 -178.06125 324.319375 -177.0625 323.96875 C-148.49385129 313.7263444 -122.20145496 296.80651482 -103 273 C-102.09004185 271.90217952 -101.17986407 270.80454106 -100.26953125 269.70703125 C-69.51242712 232.29612704 -51.13538847 186.7780423 -41.75 139.5625 C-41.51579346 138.39904053 -41.28158691 137.23558105 -41.0402832 136.03686523 C-38.64345077 123.38066187 -37.48840389 110.89950035 -36 98 C-55.8 98 -75.6 98 -96 98 C-94.21153635 94.42307271 -92.93920313 92.69136525 -90.19088745 89.95037842 C-89.39720764 89.15394928 -88.60352783 88.35752014 -87.78579712 87.53695679 C-86.91401825 86.67236847 -86.04223938 85.80778015 -85.14404297 84.91699219 C-84.22691528 83.99957245 -83.3097876 83.08215271 -82.36486816 82.13693237 C-79.8529964 79.62448703 -77.33500797 77.11825394 -74.81587744 74.61308956 C-72.1830938 71.99281223 -69.55597647 69.36686638 -66.92825317 66.74151611 C-61.95283319 61.77231118 -56.97233713 56.80822631 -51.98999798 51.8459599 C-46.31743327 46.19575337 -40.65054957 40.53986372 -34.98413634 34.88348913 C-23.32906793 23.2493233 -11.66688468 11.62231655 0 0 Z " fill="#010002" transform="translate(414,90)"/>
<path d="M0 0 C0 0.66 0 1.32 0 2 C-0.969375 2.3403125 -1.93875 2.680625 -2.9375 3.03125 C-31.50614871 13.2736556 -57.79854504 30.19348518 -77 54 C-77.90995815 55.09782048 -78.82013593 56.19545894 -79.73046875 57.29296875 C-99.84952198 81.76445247 -114.95668896 109.93577904 -125.26367188 139.86865234 C-125.93450837 141.81043041 -126.63000918 143.74364307 -127.328125 145.67578125 C-133.05439669 161.96666177 -136.78349275 178.82433162 -139.75 195.8125 C-139.94851562 196.94252441 -140.14703125 198.07254883 -140.3515625 199.23681641 C-142.01206129 209.15858098 -142.94101595 218.93965151 -144 229 C-124.2 229 -104.4 229 -84 229 C-85.78846365 232.57692729 -87.06079687 234.30863475 -89.80911255 237.04962158 C-90.60279236 237.84605072 -91.39647217 238.64247986 -92.21420288 239.46304321 C-93.52187119 240.75992569 -93.52187119 240.75992569 -94.85595703 242.08300781 C-95.77308472 243.00042755 -96.6902124 243.91784729 -97.63513184 244.86306763 C-100.1470036 247.37551297 -102.66499203 249.88174606 -105.18412256 252.38691044 C-107.8169062 255.00718777 -110.44402353 257.63313362 -113.07174683 260.25848389 C-118.04716681 265.22768882 -123.02766287 270.19177369 -128.01000202 275.1540401 C-133.68256673 280.80424663 -139.34945043 286.46013628 -145.01586366 292.11651087 C-156.67093207 303.7506767 -168.33311532 315.37768345 -180 327 C-183.31249959 325.55361922 -185.49959763 323.7515809 -188.04962158 321.2043457 C-188.84605072 320.41355621 -189.64247986 319.62276672 -190.46304321 318.80801392 C-191.75992569 317.50505875 -191.75992569 317.50505875 -193.08300781 316.17578125 C-194.00042755 315.26186615 -194.91784729 314.34795105 -195.86306763 313.40634155 C-198.37571053 310.90280956 -200.88199424 308.3930007 -203.38691044 305.88174057 C-206.0077755 303.25581186 -208.63351679 300.63476641 -211.25848389 298.01293945 C-215.66355808 293.61150255 -220.06440091 289.20586784 -224.46289062 284.79785156 C-229.55336018 279.69648441 -234.65101308 274.60238056 -239.75243115 269.51196384 C-244.1298301 265.14362843 -248.50333503 260.77142312 -252.87358356 256.3959341 C-255.48493675 253.78145779 -258.09763454 251.1683637 -260.7138443 248.55874634 C-263.62649135 245.65292697 -266.53092929 242.73903738 -269.43457031 239.82421875 C-270.74359818 238.52126358 -270.74359818 238.52126358 -272.07907104 237.19198608 C-272.86422089 236.40119659 -273.64937073 235.6104071 -274.45831299 234.7956543 C-275.49030256 233.76253365 -275.49030256 233.76253365 -276.54314041 232.70854187 C-278 231 -278 231 -278 229 C-258.2 229 -238.4 229 -218 229 C-217.67 223.39 -217.34 217.78 -217 212 C-216.54947124 207.94524112 -216.06454051 203.96114867 -215.4375 199.9375 C-215.26968018 198.86024658 -215.10186035 197.78299316 -214.92895508 196.6730957 C-206.91303416 148.27864813 -188.88909557 99.51782914 -158 61 C-157.55720703 60.44151367 -157.11441406 59.88302734 -156.65820312 59.30761719 C-129.67386196 25.48589034 -93.73512036 0.41213063 -50.03125 -4.68359375 C-33.13654107 -6.16610446 -16.26173084 -4.9408165 0 0 Z " fill="#010002" transform="translate(278,95)"/>
</svg>
