<?xml version="1.0" encoding="UTF-8"?>
<svg version="1.1" xmlns="http://www.w3.org/2000/svg" width="30" height="30">
<path d="M0 0 C1.65 0 3.3 0 5 0 C5 1.65 5 3.3 5 5 C5.763125 4.34 6.52625 3.68 7.3125 3 C10 1 10 1 13 1 C12.4409112 4.24271506 11.5867822 5.93057424 9 8 C8.34 8 7.68 8 7 8 C7 9.65 7 11.3 7 13 C7.763125 13.2475 8.52625 13.495 9.3125 13.75 C12.27791695 15.1292637 13.38360273 16.19257315 15 19 C15 19.99 15 20.98 15 22 C13.0625 21.6875 13.0625 21.6875 11 21 C10.67 20.01 10.34 19.02 10 18 C8.68 18 7.36 18 6 18 C5.731875 18.598125 5.46375 19.19625 5.1875 19.8125 C4.00082594 21.99847854 2.90400887 23.41332594 1 25 C0.34 25 -0.32 25 -1 25 C-0.855625 24.29875 -0.71125 23.5975 -0.5625 22.875 C-0.376875 21.92625 -0.19125 20.9775 0 20 C0.309375 18.4221875 0.309375 18.4221875 0.625 16.8125 C1.26074106 14.05356428 1.26074106 14.05356428 0 12 C-0.33 12.99 -0.66 13.98 -1 15 C-1.99 15 -2.98 15 -4 15 C-3.75 11.625 -3.75 11.625 -3 8 C-0.9375 6.5625 -0.9375 6.5625 1 6 C0.67 5.67 0.34 5.34 0 5 C-0.04063832 3.33382885 -0.042721 1.66611905 0 0 Z " fill="#000000" transform="translate(8,3)"/>
<path d="M0 0 C1.32 0.66 2.64 1.32 4 2 C4 4.64 4 7.28 4 10 C2.35 10.33 0.7 10.66 -1 11 C-2.61949011 8.42786866 -3.04408751 7.32330841 -2.625 4.25 C-2.41875 3.5075 -2.2125 2.765 -2 2 C-1.34 2 -0.68 2 0 2 C0 1.34 0 0.68 0 0 Z " fill="#000000" transform="translate(24,10)"/>
</svg>
