<?xml version="1.0" encoding="UTF-8"?>
<svg version="1.1" xmlns="http://www.w3.org/2000/svg" width="30" height="30">
<path d="M0 0 C3.25772164 1.41022178 5.1929027 2.93157305 7 6 C7.98506667 9.58100708 7.99778473 12.42073735 7 16 C5.14458009 18.91817625 3.11991255 20.53083483 0 22 C-2.662047 22.51971409 -5.1529778 22.7470685 -7.86328125 22.796875 C-10.21633877 22.79166246 -10.21633877 22.79166246 -12 25 C-14.625 25.125 -14.625 25.125 -17 25 C-16.773125 24.071875 -16.54625 23.14375 -16.3125 22.1875 C-16.209375 21.135625 -16.10625 20.08375 -16 19 C-16.47566406 18.53851562 -16.95132812 18.07703125 -17.44140625 17.6015625 C-19.51879526 15.46690211 -19.52553638 14.13071881 -19.625 11.1875 C-19.47885777 7.34845612 -18.96237585 5.14691581 -16.25 2.375 C-11.28258195 -1.15873235 -5.82088051 -1.14844399 0 0 Z M-10 9 C-9.67 9.66 -9.34 10.32 -9 11 C-8.34 10.34 -7.68 9.68 -7 9 C-7.99 9 -8.98 9 -10 9 Z M-5 9 C-3.515 9.99 -3.515 9.99 -2 11 C-2 10.34 -2 9.68 -2 9 C-2.99 9 -3.98 9 -5 9 Z " fill="#000000" transform="translate(21,3)"/>
</svg>
