<?xml version="1.0" encoding="UTF-8"?>
<svg version="1.1" xmlns="http://www.w3.org/2000/svg" width="48" height="48">
<path d="M0 0 C1 1 1 1 1.4375 4.25 C0.98543554 8.12483824 0.90592694 8.60455448 -1.8125 11 C-2.864375 11.66 -3.91625 12.32 -5 13 C-5.99 12.67 -6.98 12.34 -8 12 C-7.75 10.125 -7.75 10.125 -7 8 C-4.9375 6.75 -4.9375 6.75 -3 6 C-3 5.34 -3 4.68 -3 4 C-3.65484375 4.5775 -4.3096875 5.155 -4.984375 5.75 C-11.36452962 10.94063427 -15.50112905 12.86904291 -23.76171875 12.28125 C-24.50035156 12.1884375 -25.23898438 12.095625 -26 12 C-26 11.01 -26 10.02 -26 9 C-23.36 8.67 -20.72 8.34 -18 8 C-18 7.67 -18 7.34 -18 7 C-20.60423592 6.97302863 -23.20819244 6.95317511 -25.8125 6.9375 C-26.55048828 6.92912109 -27.28847656 6.92074219 -28.04882812 6.91210938 C-31.29922068 6.89740172 -33.89404895 6.96468298 -37 8 C-37.73323796 10.01508358 -37.73323796 10.01508358 -38 12 C-37.0925 12.28875 -36.185 12.5775 -35.25 12.875 C-32 14 -32 14 -30.06640625 15.0546875 C-24.34344946 17.67275091 -17.69010085 15.93705561 -12 14 C-11.67 15.32 -11.34 16.64 -11 18 C-16.66224889 21.77483259 -25.34492993 20.74097061 -32 20 C-35.68759304 18.97643018 -38.3704945 17.81279542 -41 15 C-42.375 11.5 -42.375 11.5 -42 8 C-39.625 5.125 -39.625 5.125 -37 3 C-36.67 2.67 -36.34 2.34 -36 2 C-28.59857595 1.65855032 -21.32046575 1.89502404 -14 3 C-10.99548062 3.32539569 -10.99548062 3.32539569 -9.25 1.5 C-6.11092136 -0.59271909 -3.68789457 -0.27833167 0 0 Z " fill="#000000" transform="translate(45,25)"/>
<path d="M0 0 C2.85745543 1.45840033 5.1152838 3.37115464 7.5 5.5 C8.13164063 6.0053125 8.76328125 6.510625 9.4140625 7.03125 C13.78208149 10.81308462 13.78208149 10.81308462 14.40234375 14.19140625 C14.40625 16.40625 14.40625 16.40625 14 20 C13.01 20 12.02 20 11 20 C10.71125 19.01 10.4225 18.02 10.125 17 C7.83490101 11.62707546 3.0399616 7.7574258 -2 5 C-7.30480531 5.14112941 -10.85990931 8.35057211 -14.81640625 11.58984375 C-18.1948801 15.31885693 -18.77834316 19.08324836 -19 24 C-19.99 24 -20.98 24 -22 24 C-23.37288136 13.83050847 -23.37288136 13.83050847 -20.171875 9.5625 C-17.86798503 7.54850347 -15.49963042 5.76245128 -13 4 C-12.154375 3.175 -11.30875 2.35 -10.4375 1.5 C-7.00502638 -0.61229146 -3.87747042 -0.70205748 0 0 Z " fill="#000000" transform="translate(28,3)"/>
<path d="M0 0 C1.0725 0.00515625 2.145 0.0103125 3.25 0.015625 C4.85875 0.00789062 4.85875 0.00789062 6.5 0 C9.25 0.265625 9.25 0.265625 11.25 2.265625 C11.82855736 6.6461307 11.7459561 8.58003862 9.125 12.203125 C6.25 14.265625 6.25 14.265625 3.25 14.890625 C-0.85703441 14.03499283 -2.30401113 12.64684491 -4.75 9.265625 C-5.1875 5.578125 -5.1875 5.578125 -4.75 2.265625 C-2.75 0.265625 -2.75 0.265625 0 0 Z M-0.75 4.265625 C-0.55528889 6.21561629 -0.55528889 6.21561629 0.25 8.265625 C2.2337767 9.54999234 2.2337767 9.54999234 4.25 10.265625 C5.81249809 8.95361327 5.81249809 8.95361327 7.25 7.265625 C7.25 6.275625 7.25 5.285625 7.25 4.265625 C4.61 4.265625 1.97 4.265625 -0.75 4.265625 Z " fill="#000000" transform="translate(20.75,11.734375)"/>
</svg>
