<?xml version="1.0" encoding="UTF-8"?>
<svg version="1.1" viewBox="0 0 1600 1600" width="1280" height="1280" xmlns="http://www.w3.org/2000/svg">
<path transform="translate(738,200)" d="m0 0h112v12c20.5 0.33 40.9 0.66 62 1v12h38v13h25v12h25v12c1.71-0.0206 3.42-0.0412 5.19-0.0625 6.65-0.00792 13.2 0.487 19.8 1.06v12h25v13h12v12h13v12c1.96-0.0206 3.92-0.0412 5.94-0.0625 2.02-0.0213 4.04-0.00994 6.06 0.0625 1 1 1 1 1.1 3.72-0.0326 3.09-0.0651 6.18-0.0977 9.28h12v12c1.96-0.0206 3.92-0.0412 5.94-0.0625 2.02-0.0213 4.04-0.00994 6.06 0.0625 1 1 1 1 1.1 3.72-0.0326 3.09-0.0651 6.18-0.0977 9.28h12v12h12v13h13v13h12c0.33 7.92 0.66 15.8 1 24 3.96 0.33 7.92 0.66 12 1v24h12c0.729 8.38 1.1 16.6 1 25h12v25h12c0.33 12.5 0.66 25.1 1 38h12v38h12c0.175 11 0.341 22 0.5 33.1 0.0119 0.825 0.0238 1.65 0.036 2.5 0.355 24.9 0.558 49.7 0.527 74.6-8.56e-4 0.69-0.00171 1.38-0.00259 2.09-0.011 8.26-0.0315 16.5-0.0599 24.8h12v125h12c0.33 12.2 0.66 24.4 1 37h12v26h12c0.33 12.2 0.66 24.4 1 37h12v13h12c0.767 8.05 1.1 15.9 1 24h12v13h12c0.33 3.96 0.66 7.92 1 12 3.96 0.33 7.92 0.66 12 1v12h12c0.33 3.96 0.66 7.92 1 12 3.96 0.33 7.92 0.66 12 1v12h12c0.33 3.96 0.66 7.92 1 12 3.96 0.33 7.92 0.66 12 1v12h25v13h12v12h13v13h13v12h12v13h12c0.767 8.05 1.1 15.9 1 24h12v13h12c1.02 33.4 0.992 66.6 0 100h-12v25h-13v13h-12v12h-12c0.0206 1.96 0.0412 3.92 0.0625 5.94 0.0213 2.02 0.00994 4.04-0.0625 6.06-1 1-1 1-3.72 1.1-3.09-0.0326-6.18-0.0651-9.28-0.0977v12h-13v12c-71.5 0.761-143 1.15-214 1.13-9.2-0.00228-18.4-0.00204-27.6-2.67e-4 -1.01 1.94e-4 -1.01 1.94e-4 -2.05 3.91e-4 -2.76 5.34e-4 -5.52 0.00108-8.27 0.00165-25.3 0.0052-50.6 0.00569-75.9 0.00285-24.3-0.00272-48.6-0.00374-72.9-0.00248-1.54 7.75e-5 -3.08 1.55e-4 -4.63 2.31e-4 -6.2 3.11e-4 -12.4 6.29e-4 -18.6 9.6e-4 -17.3 9.16e-4 -34.6 0.00149-51.9 0.00179-0.787 1.36e-5 -1.57 2.73e-5 -2.39 4.14e-5 -25 4.07e-4 -49.9-7.08e-4 -74.9-0.00289-0.806-7.02e-5 -1.61-1.4e-4 -2.44-2.13e-4 -13.1-0.00114-26.2-0.00236-39.2-0.00359-52-0.00487-104-0.00462-156 2.31e-4 -13.2 0.00122-26.3 0.00243-39.5 0.00357-1.22 1.06e-4 -1.22 1.06e-4 -2.46 2.13e-4 -25 0.00216-50 0.00307-75 0.00264-1.18-2.04e-5 -1.18-2.04e-5 -2.38-4.12e-5 -17.3-3.13e-4 -34.5-9.46e-4 -51.8-0.00187-6.17-3.29e-4 -12.3-6.42e-4 -18.5-9.51e-4 -1.54-7.74e-5 -3.07-1.56e-4 -4.61-2.36e-4 -24.3-0.00126-48.6 1.42e-4 -73 0.00285-25.2 0.00277-50.3 0.00172-75.5-0.00353-2.71-5.52e-4 -5.43-0.00109-8.14-0.00161-0.999-1.95e-4 -0.999-1.95e-4 -2.02-3.95e-4 -11.1-0.00207-22.1-2.59e-4 -33.2 0.00265-9.69 0.00227-19.4 8e-4 -29.1-0.0035-5.49-0.00234-11-0.00327-16.5 4.06e-4 -30.4 0.0189-60.8-0.42-91.1-1.13v-12h-25l-1-12c-3.96-0.33-7.92-0.66-12-1v-12h-12c-0.729-8.38-1.1-16.6-1-25h-12v-25h-12l-1-37h-12v-26h12c-0.0116-1.58-0.0232-3.16-0.0352-4.79-0.0547-10.8-0.0403-21.5 1.04-32.2h12v-25h13v-13h12v-12h12v-12h13v-13h13v-12h12v-13h25v-12c3.96-0.33 7.92-0.66 12-1 0.33-3.96 0.66-7.92 1-12h12v-12c3.96-0.33 7.92-0.66 12-1 0.33-3.96 0.66-7.92 1-12h12v-12c3.96-0.33 7.92-0.66 12-1 0.33-3.96 0.66-7.92 1-12h12v-25h13v-12h12v-26h12c0.33-12.2 0.66-24.4 1-37h12v-37h12l-0.0625-4.94c-0.0123-11 0.582-22 1.06-33.1h12v-188h12l-0.0176-4.53c-0.0414-15.7 0.173-31.3 0.518-47 0.0484-2.29 0.0966-4.59 0.145-6.88 0.116-5.52 0.235-11 0.355-16.6h12v-37h12l1-37h12v-25c3.96-0.33 7.92-0.66 12-1 0.33-3.96 0.66-7.92 1-12h12v-25h13v-13h12v-24h13v-13h12v-12c3.96-0.33 7.92-0.66 12-1 0.33-3.96 0.66-7.92 1-12h12v-12l12-1c0.33-3.96 0.66-7.92 1-12h24v-12h13v-13h13v-12c7.92-0.33 15.8-0.66 24-1 0.33-3.96 0.66-7.92 1-12h25v-12c7.92-0.33 15.8-0.66 24-1 0.33-3.96 0.66-7.92 1-12h37v-12c20.8-0.33 41.6-0.66 63-1v-12z" fill="#000100"/>
<path transform="translate(550,1400)" d="m0 0h500v50h-13v12h-12v13h-13v12h-12v13h-12c0.0309 2.94 0.0309 2.94 0.0625 5.94 0.0213 2.02 0.00994 4.04-0.0625 6.06-1 1-1 1-3.72 1.1-3.09-0.0326-6.18-0.0651-9.28-0.0977v12h-12v12h-13v13h-25v12h-25v13h-25v12c-12.3 1.23-24.6 1.09-37 1v12h-101v-12c-2.57 0.0309-2.57 0.0309-5.19 0.0625-6.65 0.00792-13.2-0.487-19.8-1.06v-12h-24v-12h-13v-13h-25v-12c-2.94 0.0309-2.94 0.0309-5.94 0.0625-2.02 0.0213-4.04 0.00994-6.06-0.0625-0.33-0.33-0.66-0.66-1-1v-12h-24v-13h-13v-12h-12c-0.729-8.38-1.1-16.6-1-25h-12v-13h-12v-12h-13v-50z" fill="#000100"/>
<path transform="translate(725)" d="m0 0h150v13h12v12h13v13h13v12h12v12c1.71-0.0206 3.42-0.0412 5.19-0.0625 6.65-0.00792 13.2 0.487 19.8 1.06v12h12v13h13v24h12v13h13v25h12c0.729 8.38 1.1 16.6 1 25h12v12h-50v-12h-38v-12c-24.3-0.495-24.3-0.495-49-1v-12h-176v12c-16.2 0.33-32.3 0.66-49 1-0.33 3.96-0.66 7.92-1 12h-49v12h-38v-24c3.96-0.33 7.92-0.66 12-1 0.33-3.96 0.66-7.92 1-12h12v-25h12c-0.0206-1.71-0.0412-3.42-0.0625-5.19-0.00792-6.65 0.487-13.2 1.06-19.8h12v-13h12v-12h13v-12c5.94-0.495 5.94-0.495 12-1 0.33-3.96 0.66-7.92 1-12h12v-12c8.38-0.729 16.6-1.1 25-1v-12h12c-0.0309-2.94-0.0309-2.94-0.0625-5.94-0.0213-2.02-0.00994-4.04 0.0625-6.06 1-1 1-1 3.72-1.1 3.09 0.0326 6.18 0.0651 9.28 0.0977v-12z" fill="#000100"/>
</svg>
