<?xml version="1.0" encoding="UTF-8"?>
<svg version="1.1" viewBox="0 0 1600 1600" width="1280" height="1280" xmlns="http://www.w3.org/2000/svg">
<path transform="translate(509,634)" d="m0 0h8v7h8v9h8c0.33 2.64 0.66 5.28 1 8 2.31 0.33 4.62 0.66 7 1 0.33 5.28 0.66 10.6 1 16h8v8h8v9h8v8h9v8c1.3-0.0206 2.6-0.0412 3.94-0.0625 1.35-0.0215 2.71-0.00898 4.06 0.0625 1 1 1 1 1 8 5.28 0.33 10.6 0.66 16 1v8h8v8c5.61 0.33 11.2 0.66 17 1v8h16v8h17v8c8.25 0.33 16.5 0.66 25 1v8h34v8h150v-8c16.2-0.33 32.3-0.66 49-1v-7c8.34-1.19 16.6-1.09 25-1v-8h17v-8h17v-8c7.92-0.495 7.92-0.495 16-1v-8h9v-8c7.92-0.495 7.92-0.495 16-1v-7c1-1 1-1 2.85-1.1 2.05 0.0326 4.1 0.0651 6.15 0.0977v-8h8v-8c2.64-0.33 5.28-0.66 8-1 0.33-2.64 0.66-5.28 1-8h8v-8h8c0.33-5.28 0.66-10.6 1-16h8v-9h8v-16h16c0.33 2.31 0.66 4.62 1 7 3.96 0.495 3.96 0.495 8 1v16h8c0.33 5.61 0.66 11.2 1 17h8v8h8v9h8v8h8v8h9v9h9v8h16v8c1.3-0.0206 2.6-0.0412 3.94-0.0625 1.35-0.0215 2.71-0.00898 4.06 0.0625 1 1 1 1 1 8 5.28 0.33 10.6 0.66 16 1v8h17v8c1.05-0.0116 2.1-0.0232 3.18-0.0352 7.36-0.056 14.5-0.00762 21.8 1.04v8h41v8h59v-8c16.2-0.33 32.3-0.66 49-1v-7c6.07-0.77 11.9-1.1 18-1v-8h16v-8h17c0.0171 49 0.033 97.9 0.0423 147 1.38e-4 0.725 2.76e-4 1.45 4.18e-4 2.2 0.00299 15.8 0.00576 31.5 0.0083 47.3 0.00125 7.73 0.00254 15.5 0.00387 23.2 1.96e-4 1.15 1.96e-4 1.15 3.96e-4 2.33 0.00426 24.9 0.0118 49.8 0.021 74.7 0.00944 25.6 0.0156 51.2 0.0176 76.8 2.88e-4 3.62 6.14e-4 7.24 9.62e-4 10.9 6.74e-5 0.713 1.35e-4 1.43 2.04e-4 2.16 0.00118 11.4 0.00581 22.9 0.0118 34.3 0.0059 11.5 0.00805 23 0.00667 34.6-6.4e-4 6.24 3.31e-4 12.5 0.0057 18.7 0.00489 5.72 0.0051 11.4 0.00169 17.2-4.2e-4 2.06 8.28e-4 4.12 0.00398 6.18 0.0172 11.9-0.263 23.7-1.12 35.6h-7c-0.33 10.9-0.66 21.8-1 33h-8v17h-8c0.0116 0.557 0.0232 1.11 0.0352 1.69 0.0616 5.21-0.285 10.2-1.04 15.3h-8v16h-8v9h-8v8h-8c-0.33 5.28-0.66 10.6-1 16h-8v9h-9v8h-8v8c-5.28 0.33-10.6 0.66-16 1v8h-17v8c-2.64 0.33-5.28 0.66-8 1-0.33 2.31-0.66 4.62-1 7-5.28 0.33-10.6 0.66-16 1v8h-25v8c-28.7 0.495-28.7 0.495-58 1v7c-34.8 0.805-69.7 1.11-105 1.12-3.08 0.00162-6.16 0.00518-9.25 0.00919-4.91 0.00587-9.82 0.00606-14.7 0.00175-1.82-9.92e-4 -3.65-4.19e-4 -5.47 0.00184-2.52 0.00257-5.05-0.00128-7.57-0.00676-0.726 0.00203-1.45 0.00405-2.2 0.00614-5.13-0.0209-10.1-0.483-15.2-1.14v-8h-8v-350h-8c-0.33-10.9-0.66-21.8-1-33h-7c-0.33-8.25-0.66-16.5-1-25h-8v-17h-8v-16h-8c-0.33-2.64-0.66-5.28-1-8-2.64-0.33-5.28-0.66-8-1v-16h-8c-0.33-2.64-0.66-5.28-1-8-2.64-0.33-5.28-0.66-8-1v-8h-8v-8h-8c-0.33-2.64-0.66-5.28-1-8-2.64-0.33-5.28-0.66-8-1v-8h-8v-8c-5.28-0.33-10.6-0.66-16-1-0.33-2.31-0.66-4.62-1-7-5.28-0.33-10.6-0.66-16-1v-8h-17v-8c-5.61-0.33-11.2-0.66-17-1v-7c-10.9-0.33-21.8-0.66-33-1v-8h-108v8c-8.25 0.33-16.5 0.66-25 1-0.33 2.31-0.66 4.62-1 7l-24 1v8h-17v8c-5.28 0.33-10.6 0.66-16 1v7c-1 1-1 1-2.85 1.1-2.05-0.0326-4.1-0.0651-6.15-0.0977v8h-9v8c-5.28 0.33-10.6 0.66-16 1v8h-8c-0.33 5.28-0.66 10.6-1 16h-8v9h-8v8h-8c-0.33 5.28-0.66 10.6-1 16h-8v9h-8v17h-8c0.0116 1.06 0.0232 2.12 0.0352 3.22 0.105 13.9 0.105 13.9-1.04 20.8-2.31 0.33-4.62 0.66-7 1-0.33 8.25-0.66 16.5-1 25h-8v67h-8v258h8v8h-8v16h8v17h-8v8c-11.4 0.801-22.8 1.12-34.3 1.02-1.65-0.0102-3.3-0.0199-4.94-0.0291-4.41-0.0261-8.83-0.059-13.2-0.0931-4.64-0.0347-9.27-0.063-13.9-0.0921-8.75-0.0558-17.5-0.117-26.3-0.181-9.97-0.0721-19.9-0.138-29.9-0.203-20.5-0.134-41-0.276-61.5-0.424v-7c-13.5-0.33-27.1-0.66-41-1v-8h-17v-8c-0.557 0.0116-1.11 0.0232-1.69 0.0352-5.21 0.0616-10.2-0.285-15.3-1.04v-8h-16v-8h-9v-8c-5.28-0.33-10.6-0.66-16-1v-8h-8v-8h-9v-9h-8v-8h-8v-8h-9v-17h-8v-8h-8c-0.33-5.61-0.66-11.2-1-17h-8v-17h-8c-0.33-7.92-0.66-15.8-1-24-2.31-0.33-4.62-0.66-7-1-0.831-11-1.12-21.9-1-33h-8v-516h16v8h17v8c8.25 0.33 16.5 0.66 25 1 0.495 3.47 0.495 3.47 1 7l41 1v8h58v-8h42v-8l25-1v-8h25v-8c2.64-0.33 5.28-0.66 8-1 0.33-2.31 0.66-4.62 1-7 7.92-0.495 7.92-0.495 16-1v-8h9v-8c7.92-0.495 7.92-0.495 16-1v-8h8v-8h9v-8h8v-9h8c0.33-5.28 0.66-10.6 1-16h8v-8h8v-9h8c-0.0116-0.568-0.0232-1.14-0.0352-1.72-0.0571-4.88 0.216-9.46 1.04-14.3z" fill="#000100"/>
<path transform="translate(558,125)" d="m0 0h9v8h141v-8h333c1.12 10.1 1.12 10.1 1.12 14.2 0.00206 1.38 0.00206 1.38 0.00417 2.79-0.0036 0.978-0.00719 1.96-0.0109 2.96 1.46e-4 1.05 2.92e-4 2.11 4.43e-4 3.2-6.92e-4 3.46-0.00845 6.91-0.0163 10.4-0.00187 2.41-0.00329 4.82-0.00429 7.23-0.00381 6.32-0.0136 12.6-0.0247 19-0.0103 6.46-0.0148 12.9-0.0198 19.4-0.0107 12.7-0.0276 25.3-0.0488 38h8v16h-8c3.8e-4 0.555 7.59e-4 1.11 0.00115 1.68 0.0224 33 0.0396 66.1 0.0499 99.1 0.00125 3.98 0.00254 7.96 0.00387 11.9 3.93e-4 1.19 3.93e-4 1.19 7.95e-4 2.4 0.00433 12.8 0.0122 25.5 0.0214 38.3 0.0094 13.1 0.0149 26.3 0.0169 39.4 0.00136 8.08 0.00564 16.2 0.0138 24.3 0.00535 5.57 0.00687 11.1 0.00558 16.7-6.31e-4 3.2 8.08e-4 6.39 0.0057 9.59 0.0236 16.2-0.335 32.4-1.12 48.6h-7c-0.33 8.25-0.66 16.5-1 25h-8v17h-8c-0.33 5.28-0.66 10.6-1 16-2.31 0.33-4.62 0.66-7 1-0.33 2.64-0.66 5.28-1 8h-8v16h-9v8c-2.31 0.33-4.62 0.66-7 1-0.33 2.64-0.66 5.28-1 8h-8v8h-9v8c-5.28 0.33-10.6 0.66-16 1v8h-9v8h-16v8c-11 0.764-22 1.13-33 1v8h-51v8h-91v-8h-50v-8c-1.05 0.0116-2.1 0.0232-3.18 0.0352-7.36 0.056-14.5 0.00762-21.8-1.04v-8h-17v-8h-16v-8c-1.95 0.0309-1.95 0.0309-3.94 0.0625-1.35 0.0215-2.71 0.00898-4.06-0.0625-1-1-1-1-1.1-2.85 0.0326-2.05 0.0651-4.1 0.0977-6.15h-8v-8h-16c-0.33-2.64-0.66-5.28-1-8-2.64-0.33-5.28-0.66-8-1v-16h-8c-0.33-2.64-0.66-5.28-1-8-2.31-0.33-4.62-0.66-7-1-0.33-5.28-0.66-10.6-1-16h-8v-9h-8c-0.495-11.9-0.495-11.9-1-24h-7c-0.796-11.4-1.13-22.6-1-34h-8v-400h8v-8z" fill="#000100"/>
<path transform="translate(1133,125)" d="m0 0h33v8c0.871-9.22e-4 1.74-0.00184 2.64-0.00279 21.4-0.0222 42.7-0.0387 64.1-0.049 10.3-0.00512 20.7-0.0121 31-0.0236 9.02-0.0101 18-0.0164 27.1-0.0186 4.76-0.00128 9.52-0.00422 14.3-0.0116 23.4-0.035 46.7 0.25 70 1.11v8h16v8h9v8c1.3-0.0206 2.6-0.0412 3.94-0.0625 1.35-0.0215 2.71-0.00898 4.06 0.0625 1 1 1 1 1.06 4.56-0.0206 1.13-0.0412 2.27-0.0625 3.44 1.7-0.0309 1.7-0.0309 3.44-0.0625 3.56 0.0625 3.56 0.0625 4.56 1.06 0.141 2.67 0.0425 5.32 0 8h8v16h8c0.33 5.61 0.66 11.2 1 17h7c0.832 5.72 1.12 11.2 1 17h8v25h8v33h8c0.796 11.4 1.13 22.6 1 34h8v33h8c0.33 10.9 0.66 21.8 1 33h7c0.796 11.4 1.13 22.6 1 34h8v41h8c1.19 45 1.19 45 1 67h7v8h-8v33h-8v17h-8c0.0116 0.557 0.0232 1.11 0.0352 1.69 0.0616 5.21-0.285 10.2-1.04 15.3h-7c-0.33 5.61-0.66 11.2-1 17h-8v8h-8c-0.33 5.28-0.66 10.6-1 16-2.31 0.33-4.62 0.66-7 1-0.33 2.64-0.66 5.28-1 8h-8v8c-2.64 0.33-5.28 0.66-8 1-0.33 2.31-0.66 4.62-1 7-5.28 0.33-10.6 0.66-16 1v8h-9v8h-16v8c-11 0.764-22 1.13-33 1v8h-58v8h-9v-8h-42v-8c-7.92-0.33-15.8-0.66-24-1-0.33-2.31-0.66-4.62-1-7-5.28-0.33-10.6-0.66-16-1v-8h-9v-8h-8v-8c-5.28-0.33-10.6-0.66-16-1v-8h-9v-16h-8v-9h-8c-0.33-5.28-0.66-10.6-1-16h-8v-9h-8v-17h-8c-1.14-13.7-1.11-27.3-1-41h-8v-409h8v-8z" fill="#000100"/>
<path transform="translate(442,125)" d="m0 0h16v8c1.3-0.0206 2.6-0.0412 3.94-0.0625 1.35-0.0215 2.71-0.00898 4.06 0.0625 1.66 1.66 1.12 3.67 1.12 5.88-0.0036 0.698-0.00719 1.4-0.0109 2.11 1.46e-4 0.732 2.92e-4 1.46 4.43e-4 2.22-6.99e-4 2.43-0.00849 4.86-0.0163 7.29-0.00186 1.68-0.00329 3.36-0.00429 5.04-0.00383 4.43-0.0137 8.86-0.0247 13.3-0.0102 4.52-0.0148 9.04-0.0198 13.6-0.0107 8.87-0.0278 17.7-0.0488 26.6h8v266h-8c0.00222 0.902 0.00444 1.8 0.00673 2.73 0.0202 8.57 0.0353 17.1 0.0451 25.7 0.00518 4.41 0.0122 8.81 0.0236 13.2 0.011 4.27 0.0169 8.53 0.0194 12.8 0.00182 1.61 0.00538 3.23 0.0109 4.84 0.0356 10.9-0.344 21.8-1.11 32.7h-7c-0.33 8.25-0.66 16.5-1 25h-8v16h-8c0.0309 1.95 0.0309 1.95 0.0625 3.94 0.0215 1.35 0.00898 2.71-0.0625 4.06-0.33 0.33-0.66 0.66-1 1h-7c-0.33 5.28-0.66 10.6-1 16h-8v9h-8v8h-9v8h-8v8c-2.64 0.33-5.28 0.66-8 1-0.33 2.64-0.66 5.28-1 8h-16v8c-5.28 0.33-10.6 0.66-16 1-0.33 2.31-0.66 4.62-1 7-5.72 0.825-11.2 1.13-17 1.06-0.775-0.00451-1.55-0.00902-2.35-0.0137-1.88-0.0116-3.77-0.0296-5.65-0.0488v8h-108v-8l-25-1v-8h-16v-8h-9v-8l-16-1c-0.33-2.31-0.66-4.62-1-7l-8-1v-8h-8v-8h-8c-0.33-2.64-0.66-5.28-1-8-2.64-0.33-5.28-0.66-8-1v-16h-8v-9h-8c-0.33-5.28-0.66-10.6-1-16h-8v-25h-8c-0.33-11.2-0.66-22.4-1-34h-7v-50h7c0.33-13.5 0.66-27.1 1-41h8v-42h8c0.33-10.9 0.66-21.8 1-33h8v-33h8v-26h8c-0.0116-0.958-0.0232-1.92-0.0352-2.9-0.0817-10.1 0.339-20.1 1.04-30.1h7c0.33-10.9 0.66-21.8 1-33h8v-25h8c-0.0116-0.557-0.0232-1.11-0.0352-1.69-0.0616-5.21 0.285-10.2 1.04-15.3h8v-16h8v-9h8v-8c2.64-0.33 5.28-0.66 8-1 0.33-2.64 0.66-5.28 1-8h8v-8h9v-8h16v-8c12.4-0.889 24.8-1.14 37.3-1.11 1.97 2.83e-4 3.95 1.22e-4 5.92-4.43e-4 5.3-2.84e-4 10.6 0.00555 15.9 0.0126 5.56 0.0063 11.1 0.00684 16.7 0.00803 10.5 0.00309 21 0.0113 31.5 0.0213 12 0.0112 23.9 0.0167 35.9 0.0217 24.6 0.0104 49.2 0.028 73.8 0.0503v-8z" fill="#000100"/>
<path transform="translate(775 1008)" d="m0 0c1.61-6.75e-4 3.21-0.00165 4.82-0.0029 3.36-0.00147 6.72 6.49e-4 10.1 0.00534 4.25 0.00566 8.51 0.00244 12.8-0.00357 3.32-0.00366 6.63-0.00244 9.95 1.28e-4 1.57 6.57e-4 3.13-1.13e-4 4.7-0.00248 10.8-0.0127 21.5 0.394 32.2 1.14v8h17v8h16v8c1.3-0.0206 2.6-0.0412 3.94-0.0625 1.35-0.0215 2.71-0.00898 4.06 0.0625 1 1 1 1 1.1 2.85-0.0326 2.05-0.0651 4.1-0.0977 6.15h8v8h9v8c1.7-0.0309 1.7-0.0309 3.44-0.0625 3.56 0.0625 3.56 0.0625 4.56 1.06 0.141 2.67 0.0425 5.32 0 8h8v16h8c0.33 8.25 0.66 16.5 1 25h7c1.26 8.75 1.13 17.5 1.1 26.3-0.00187 1.67-0.00329 3.34-0.00429 5.01-0.00379 4.36-0.0136 8.73-0.0247 13.1-0.0103 4.46-0.0148 8.93-0.0198 13.4-0.0107 8.74-0.0277 17.5-0.0488 26.2h8v116h-8v134h8v16h-8v8c-14.2 1.07-28.3 1.14-42.5 1.13-2.53 0.00136-5.06 0.00314-7.59 0.00531-6.12 0.00406-12.2 0.0035-18.3 5.87e-4 -4.97-0.00227-9.94-0.00256-14.9-0.00148-1.07 2.3e-4 -1.07 2.3e-4 -2.15 4.64e-4 -1.45 3.2e-4 -2.89 6.44e-4 -4.34 9.73e-4 -13.5 0.00284-27-4.11e-4 -40.5-0.0058-11.6-0.00447-23.1-0.00368-34.7 9.19e-4 -13.5 0.00536-26.9 0.00746-40.4 0.00439-1.44-3.19e-4 -2.87-6.33e-4 -4.31-9.43e-4 -0.707-1.54e-4 -1.41-3.09e-4 -2.14-4.68e-4 -4.97-8.61e-4 -9.93 5.89e-4 -14.9 0.00295-6.68 0.0031-13.4 8.81e-4 -20.1-0.00489-2.45-0.00132-4.9-9.45e-4 -7.35 0.00126-3.35 0.00274-6.7-7.02e-4 -10-0.00568-0.966 0.00223-1.93 0.00446-2.93 0.00676-5.69-0.0164-11.2-0.408-16.8-1.13v-8h-8v-341h8c-0.0174-0.835-0.0174-0.835-0.0352-1.69-0.0616-5.21 0.285-10.2 1.04-15.3h7c0.33-8.25 0.66-16.5 1-25h8v-8h8c-0.0206-1.3-0.0412-2.6-0.0625-3.94-0.0215-1.35-0.00898-2.71 0.0625-4.06 1-1 1-1 2.85-1.1 2.05 0.0326 4.1 0.0651 6.15 0.0977v-8h8v-8h8c-0.0206-1.3-0.0412-2.6-0.0625-3.94-0.0215-1.35-0.00898-2.71 0.0625-4.06 1-1 1-1 2.85-1.1 2.05 0.0326 4.1 0.0651 6.15 0.0977v-8h16v-8c8.41-0.495 8.41-0.495 17-1v-7c8.48-1.2 16.9-1.15 25.5-1.13z" fill="#000100"/>
</svg>
