<?xml version="1.0" encoding="UTF-8"?>
<svg version="1.1" viewBox="0 0 1600 1600" width="1280" height="1280" xmlns="http://www.w3.org/2000/svg">
<path transform="translate(762,113)" d="m0 0h88v12h25v13h12c0.33 7.92 0.66 15.8 1 24 3.96 0.33 7.92 0.66 12 1v25h13v12h287v12h112v-12h13v12c1.71-0.0206 3.42-0.0412 5.19-0.0625 6.7-0.0807 13 0.541 19.8 1.06v62h-12v25h12v63h-12v100h12v50h-12v37h12v25h-12v862c-30 0.589-60 1.16-90 1.13-6.23-0.00447-12.5-0.0018-18.7 0.00115-9.15 0.00356-18.3 0.00353-27.4 9.53e-4 -13.6-0.00383-27.2-0.00183-40.8 0.00121-22.9 0.00493-45.8 0.00516-68.7 0.00242-22.6-0.00271-45.3-0.00375-67.9-0.00248-1.43 7.75e-5 -2.86 1.55e-4 -4.29 2.31e-4 -5.74 3.11e-4 -11.5 6.29e-4 -17.2 9.6e-4 -16 9.16e-4 -32.1 0.00149-48.1 0.00179-0.73 1.36e-5 -1.46 2.73e-5 -2.21 4.14e-5 -23.2 4.08e-4 -46.4-7.13e-4 -69.6-0.00289-0.751-7.02e-5 -1.5-1.4e-4 -2.28-2.13e-4 -12.2-0.00114-24.4-0.00236-36.6-0.00359-48.5-0.00487-96.9-0.00462-145 2.31e-4 -12.2 0.00122-24.5 0.00243-36.7 0.00357-1.13 1.06e-4 -1.13 1.06e-4 -2.28 2.13e-4 -23.2 0.00216-46.5 0.00307-69.7 0.00264-0.729-1.36e-5 -1.46-2.72e-5 -2.21-4.12e-5 -16-3.12e-4 -32-9.46e-4 -48-0.00187-5.72-3.29e-4 -11.4-6.42e-4 -17.2-9.51e-4 -1.42-7.74e-5 -2.85-1.56e-4 -4.27-2.36e-4 -22.7-0.00127-45.3 1.53e-4 -68 0.00285-23.4 0.00276-46.9 0.00174-70.3-0.00353-13.5-0.00294-27-0.00312-40.5 6.46e-4 -9.02 0.00224-18 8.51e-4 -27.1-0.0035-5.14-0.00238-10.3-0.00319-15.4 4.06e-4 -4.68 0.00324-9.35 0.00185-14-0.00318-1.68-1e-3 -3.36-3.48e-4 -5.04 0.00221-9.38 0.0133-18.6-0.279-28-1.13v-12h12v-38h-12v-1174c8.57-0.659 16.5-1.1 25-1v-12h12v12h38v-12h350v-12c5.94-0.495 5.94-0.495 12-1 0.33-3.96 0.66-7.92 1-12h12v-25h13v-12h12v-13h37v-12zm13 74v13h-13v12h-12v75c-8.88-0.0116-17.8-0.0232-26.9-0.0352-6.36-0.00576-12.7-0.0109-19.1-0.0151-8.23-0.00553-16.5-0.0125-24.7-0.0252-6.52-0.01-13-0.0164-19.6-0.0186-3.45-0.0013-6.89-0.00431-10.3-0.0116-3.86-0.00814-7.72-0.00826-11.6-0.0078-1.13-0.0036-2.25-0.00719-3.41-0.0109-7.2 0.00926-14.3 0.445-21.4 1.12v12h-13v12c-3.09-0.0326-6.18-0.0651-9.28-0.0977-2.64-0.215-2.64-0.215-3.72 1.1-0.0992 1.8-0.128 3.6-0.129 5.41-0.00315 1.16-0.0063 2.32-0.00955 3.52 0.00202 1.27 0.00405 2.55 0.00613 3.86-9.57e-4 1.32-0.00191 2.63-0.0029 3.99-0.00148 2.81 6.82e-4 5.62 0.00534 8.42 0.00557 3.52 0.00251 7.04-0.00357 10.6-0.00371 2.76-0.00242 5.52 1.28e-4 8.28 9.55e-4 1.9-0.00198 3.81-0.00513 5.71 0.0318 12.5 0.64 24.8 1.14 37.3h74v12h313v-12h25v-100h-25v-12c-41.2-0.33-82.5-0.66-125-1v-62h-12v-25h-25v-12c-19-0.857-19-0.857-38-1zm-425 101v12h-12c-0.0841 87-0.168 174-0.286 296-0.00142 1.47-0.00285 2.95-0.00427 4.42-0.0299 31-0.0598 61.9-0.0897 92.9-0.015 15.6-0.03 31.1-0.045 46.7-0.00226 2.35-0.00453 4.69-0.00679 7.04-0.0349 36.1-0.0698 72.2-0.105 108-0.00113 1.16-0.00113 1.16-0.00227 2.35-0.0121 12.5-0.0242 25-0.0363 37.6-0.0349 36.1-0.0697 72.1-0.105 108-7.16e-4 0.742-0.00143 1.48-0.00217 2.25-0.0157 16.3-0.0314 32.6-0.0471 48.8-0.00632 6.55-0.0126 13.1-0.019 19.7-6.92e-4 0.717-0.00138 1.43-0.0021 2.17-0.0223 23.1-0.0446 46.2-0.067 69.3-0.0231 23.9-0.0462 47.8-0.0693 71.8-0.0133 13.8-0.0266 27.6-0.04 41.4-0.00893 9.21-0.0178 18.4-0.0267 27.6-0.00504 5.25-0.0101 10.5-0.0152 15.7-0.00466 4.78-0.00926 9.56-0.0138 14.3-0.00165 1.72-0.00331 3.43-5e-3 5.15-0.0023 2.34-0.00452 4.68-0.00673 7.01-0.00125 1.29-0.0025 2.58-0.00378 3.92-0.0035 5.78-0.00263 11.6-0.00263 17.3h51v12h112v-12h662v12h63v-12h25v-1050h-12v-12c-11.9-1.15-23.7-1.15-35.7-1.13-2.19-6.75e-4 -4.38-0.00165-6.58-0.0029-4.58-0.00147-9.15 6.46e-4 -13.7 0.00534-5.83 0.0057-11.7 0.00241-17.5-0.00357-4.52-0.00363-9.04-0.00245-13.6 1.28e-4 -2.15 6.62e-4 -4.3-1.33e-4 -6.45-0.00248-10.9-0.00928-21.6 0.0865-32.5 1.14v12h-12v13h-12c-0.33 57.4-0.66 115-1 174h-37c-10.3 0.0604-20.6 0.13-31 0.219-2.75 0.0227-5.5 0.045-8.25 0.0673-6.38 0.0519-12.8 0.105-19.1 0.159-7.29 0.0617-14.6 0.122-21.9 0.181-14.9 0.122-29.9 0.247-44.8 0.373v12h-300v-12h-75v12h-25v-12c-3.96-0.33-7.92-0.66-12-1-0.33-8.25-0.66-16.5-1-25h-12v-162h-25v-12c-62.5-1.48-62.5-1.48-125 0z" fill="#000100"/>
<path transform="translate(1063,725)" d="m0 0h25v12h12v13h12v37h-12v25c-3.96 0.33-7.92 0.66-12 1-0.33 3.96-0.66 7.92-1 12h-12v12c-3.96 0.33-7.92 0.66-12 1-0.33 3.96-0.66 7.92-1 12h-12v12c-3.96 0.33-7.92 0.66-12 1-0.33 3.96-0.66 7.92-1 12h-12v13h-12v12h-13v13h-12v12h-13v13h-12c0.0309 2.6 0.0309 2.6 0.0625 5.25 0.0075 6.3-0.465 12.5-1.06 18.8h-12v13h-25v25h-13v12h-12v13h-13v12h-12v13h-13v12h-12v13h-13v12h-12v13h-13v12h-12v13h-25v12c-16.6 1.66-33.4 1.66-50 0v-12h-25v-13h-12v-12h-13v-13h-13v-12h-12v-12h-12v-13h-13v-13h-12v-12h-13v-13h-12c-0.767-8.05-1.1-15.9-1-24h-12v-13h-12c-0.33-3.96-0.66-7.92-1-12-3.96-0.33-7.92-0.66-12-1v-24h-12c-0.865-8.54-1.11-17-1.12-25.6-0.00451-1.04-0.00902-2.08-0.0137-3.15 0.0135-7.14 0.442-14.2 1.14-21.3 7.91-0.766 15.7-1.16 23.7-1.12 1.06 0.00193 2.11 0.00387 3.2 0.00586 11.7 0.0622 23.4 0.561 35.1 1.12v12h25v13h12v12h13v25h25v13h12c0.767 8.05 1.1 15.9 1 24h12v13h13v12c2.6-0.0309 2.6-0.0309 5.25-0.0625 6.3-0.0075 12.5 0.465 18.8 1.06v12h26v-12h12v-13h13v-12h12v-13h13v-12h12v-13h13v-12h12v-13h13v-12h12v-13h13v-12h12v-13h13v-12h12v-13h13v-12h12v-13h13v-12h12v-13h13v-12h12v-13h13v-12h12v-13h25v-12c3.96-0.33 7.92-0.66 12-1 0.33-3.96 0.66-7.92 1-12z" fill="#000100"/>
</svg>
